HIERARCHY
ROOT Hips
{
	OFFSET 0.00000 0.00000 0.00000
	CHANNELS 6 Xposition Yposition Zposition Yrotation Zrotation Xrotation 
	JOINT Lumbar
	{
		OFFSET 0 0 0
		CHANNELS 3 Zrotation Xrotation Yrotation
		JOINT Neck
		{
			OFFSET 0.00 0.2701 0.00
			CHANNELS 3 Zrotation Xrotation Yrotation
			End Site
			{
				OFFSET 0.00 0.1379 0.00
			}
		}
		JOINT RightShoulder
		{
			OFFSET 0.0119 0.2289 0.1181
			CHANNELS 3 Zrotation Xrotation Yrotation
			JOINT RightElbow
			{
				OFFSET 0.00 -0.1475 0.00
				CHANNELS 2 Zrotation Yrotation
				JOINT RightWrist
				{
					OFFSET 0.00 -0.1605 0.00
					CHANNELS 2 Zrotation Xrotation
					End Site
					{
						OFFSET 0.0040 -0.1068 0.0006
					}
				}
			}
		}
		JOINT LeftShoulder
		{
			OFFSET 0.0119 0.2289 -0.1181
			CHANNELS 3 Zrotation Xrotation Yrotation
			JOINT LeftElbow
			{
				OFFSET 0.00 -0.1475 0.00
				CHANNELS 2 Zrotation Yrotation
				JOINT LeftWrist
				{
					OFFSET 0.00 -0.1605 0.00
					CHANNELS 2 Zrotation Xrotation
					End Site
					{
						OFFSET 0.0040 -0.1068 -0.0006
					}
				}
			}
		}
	}
	JOINT RightHip
	{
		OFFSET 0.0316 -0.0424 0.0458
		CHANNELS 3 Zrotation Xrotation Yrotation
		JOINT RightKnee
		{
			OFFSET 0.00 -0.2438 0.00
			CHANNELS 1 Zrotation
			JOINT RightAnkle
			{
				OFFSET 0.00 -0.2449 0.00
				CHANNELS 3 Zrotation Xrotation Yrotation
				End Site
				{
					OFFSET 0.1237 -0.0542 0.0051
				}
			}
		}
	}
	JOINT LeftHip
	{
		OFFSET 0.0316 -0.0424 -0.0458
		CHANNELS 3 Zrotation Xrotation Yrotation
		JOINT LeftKnee
		{
			OFFSET 0.00 -0.2438 0.00
			CHANNELS 1 Zrotation
			JOINT LeftAnkle
			{
				OFFSET 0.00 -0.2449 0.00
				CHANNELS 3 Zrotation Xrotation Yrotation
				End Site
				{
					OFFSET 0.1237 -0.0542 -0.0051
				}
			}
		}
	}
}
MOTION
Frames: 11
Frame Time: 0.02
9e-05 -0 0.00011 -181.23269 -35.01192 -3.53363 43.86123 2.90824 -2.73607 -12.41283 -1.12544 -1.40286 84.42382 -97.69302 55.63412 5.78691 107.58305 13.24464 3.03907 41.00807 103.73246 -55.63651 8.61212 -90.72559 11.95091 0.83499 39.12612 -4.03323 -7.34181 -22.44428 -6.66084 -2.36168 -3.36175 43.55107 10.46319 4.50589 -27.66705 -6.42438 1.64687 3.02035
6e-05 -1e-05 9e-05 -181.23637 -35.01221 -3.53558 43.85357 2.91226 -2.7332 -12.42555 -1.12093 -1.40319 84.43086 -97.69272 55.63412 5.78691 107.56775 13.26772 3.05703 41.01892 103.72444 -55.63602 8.61152 -90.72904 11.96625 0.83845 39.11833 -4.05239 -7.45557 -22.43986 -6.65817 -2.34422 -3.35494 43.54841 10.4508 4.44475 -27.66646 -6.42402 1.64617 3.0214
3e-05 -1e-05 7e-05 -181.24005 -35.01251 -3.53752 43.84593 2.91628 -2.73034 -12.43824 -1.11643 -1.40352 84.43802 -97.69242 55.63412 5.78691 107.55249 13.29068 3.07497 41.02978 103.71641 -55.63554 8.61091 -90.73251 11.98154 0.8419 39.11057 -4.07153 -7.5691 -22.43547 -6.65552 -2.3268 -3.34815 43.54576 10.43845 4.38383 -27.66588 -6.42366 1.64548 3.02244
0 -1e-05 5e-05 -181.24372 -35.01281 -3.53946 43.83829 2.9203 -2.72748 -12.45092 -1.11193 -1.40386 84.44508 -97.69212 55.63412 5.78691 107.53724 13.31369 3.09289 41.0406 103.70841 -55.63505 8.6103 -90.73595 11.99683 0.84535 39.1028 -4.09064 -7.68254 -22.43107 -6.65286 -2.3094 -3.34137 43.54311 10.4261 4.32289 -27.6653 -6.42331 1.64479 3.02348
-3e-05 -1e-05 3e-05 -181.24741 -35.0131 -3.54141 43.83064 2.92432 -2.72462 -12.46362 -1.1074 -1.40419 84.45194 -97.69183 55.63412 5.78691 107.52191 13.33681 3.1108 41.0514 103.70044 -55.63456 8.60971 -90.73935 12.01216 0.84882 39.09502 -4.10978 -7.79615 -22.42666 -6.6502 -2.29195 -3.33456 43.54045 10.41371 4.26173 -27.66471 -6.42295 1.6441 3.02453
-6e-05 -1e-05 0 -181.25105 -35.01341 -3.54332 43.82301 2.92833 -2.72175 -12.47632 -1.10297 -1.40452 84.45971 -97.69151 55.63412 5.78691 107.50681 13.35943 3.12877 41.0624 103.6923 -55.63408 8.60906 -90.74297 12.02735 0.8522 39.0873 -4.1289 -7.90949 -22.42228 -6.64755 -2.2746 -3.3278 43.53783 10.40145 4.2013 -27.66413 -6.42259 1.64342 3.02557
-8e-05 -1e-05 -2e-05 -181.25477 -35.01367 -3.5453 43.81534 2.93237 -2.71891 -12.48899 -1.09835 -1.40485 84.46573 -97.69125 55.63412 5.78691 107.49129 13.38306 3.14666 41.07293 103.68449 -55.63358 8.60852 -90.74615 12.04283 0.85579 39.07946 -4.14804 -8.02328 -22.41784 -6.64487 -2.25707 -3.32097 43.53513 10.38894 4.13949 -27.66354 -6.42223 1.64271 3.02662
-0.00011 -1e-05 -4e-05 -181.25843 -35.01399 -3.54722 43.80771 2.93637 -2.71604 -12.50169 -1.0939 -1.40518 84.47318 -97.69094 55.63412 5.78691 107.47613 13.40573 3.16455 41.08398 103.6764 -55.6331 8.60787 -90.74971 12.05801 0.85915 39.07174 -4.16716 -8.13662 -22.41346 -6.64223 -2.23971 -3.3142 43.53252 10.37665 4.07892 -27.66296 -6.42188 1.64203 3.02766
-0.00014 -2e-05 -6e-05 -181.262 -35.01436 -3.54907 43.80015 2.94034 -2.71314 -12.51444 -1.08966 -1.40551 84.48316 -97.69056 55.63412 5.78691 107.46152 13.42735 3.18273 41.09537 103.66787 -55.63264 8.60713 -90.75388 12.07296 0.86234 39.06412 -4.1863 -8.24962 -22.40916 -6.63961 -2.22255 -3.30749 43.52996 10.36467 4.01994 -27.6624 -6.42152 1.64138 3.02868
-0.00017 -2e-05 -8e-05 -181.26604 -35.01437 -3.55134 43.79222 2.94454 -2.71041 -12.52694 -1.08423 -1.40585 84.48094 -97.69053 55.63412 5.78691 107.44406 13.45539 3.20012 41.10392 103.66159 -55.63206 8.60706 -90.75494 12.08964 0.86684 39.05577 -4.20542 -8.36522 -22.40442 -6.6368 -2.20422 -3.30041 43.52693 10.35102 3.95207 -27.66173 -6.42115 1.64054 3.02981
-0.0002 -2e-05 -0.0001 -181.2691 -35.0152 -3.55272 43.78507 2.94824 -2.70735 -12.53993 -1.0813 -1.40616 84.50295 -97.68979 55.63412 5.78691 107.43241 13.46962 3.21858 41.11902 103.65072 -55.63172 8.60549 -90.76231 12.10243 0.86837 39.04906 -4.22451 -8.47488 -22.40059 -6.6344 -2.18838 -3.29411 43.52498 10.34082 3.90278 -27.66129 -6.42082 1.6401 3.0307
